<svg height="512pt" viewBox="-77 0 512 512" width="512pt" xmlns="http://www.w3.org/2000/svg"><path d="m32.167969 469.402344v25.097656c0 5.523438 4.476562 10 10 10h272.667969c5.519531 0 10-4.476562 10-10v-25.097656zm0 0" fill="#ffcd34"/><path d="m32.167969 469.402344h292.667969v17.546875h-292.667969zm0 0" fill="#e69012"/><path d="m7.5 454.539062v-432.179687c0-8.207031 6.652344-14.859375 14.859375-14.859375h312.277344c8.210937 0 14.863281 6.652344 14.863281 14.859375v432.179687c0 8.207032-6.652344 14.863282-14.859375 14.863282h-312.28125c-8.207031 0-14.859375-6.65625-14.859375-14.863282zm0 0" fill="#e9e9ea"/><path d="m334.640625 7.5h-23.5c8.207031 0 14.859375 6.652344 14.859375 14.859375v432.179687c0 8.207032-6.652344 14.863282-14.859375 14.863282h23.5c8.207031 0 14.859375-6.65625 14.859375-14.863282v-432.179687c0-8.207031-6.652344-14.859375-14.859375-14.859375zm0 0" fill="#c5c4cc"/><path d="m334.640625 7.5h-312.28125c-8.207031 0-14.859375 6.652344-14.859375 14.859375v348.640625h342v-348.640625c0-8.207031-6.652344-14.859375-14.859375-14.859375zm0 0" fill="#ffcd34"/><path d="m334.640625 7.5h-23.5c8.207031 0 14.859375 6.652344 14.859375 14.859375v348.640625h23.5v-348.640625c0-8.207031-6.652344-14.859375-14.859375-14.859375zm0 0" fill="#e69012"/><path d="m86.5 434.199219v-28c0-2.207031 1.789062-4 4-4h130c2.210938 0 4 1.792969 4 4v28c0 2.210937-1.789062 4-4 4h-130c-2.210938 0-4-1.789063-4-4zm0 0" fill="#6a7193"/><path d="m41.5 334v-286.5c0-3.3125 2.6875-6 6-6h216c3.3125 0 6 2.6875 6 6v286.5c0 3.3125-2.6875 6-6 6h-216c-3.3125 0-6-2.6875-6-6zm0 0" fill="#c8e7f7"/><path d="m293.277344 211.097656v11.589844c0 3.328125 2.699218 6.023438 6.027344 6.023438h20.390624c3.328126 0 6.027344-2.699219 6.027344-6.023438v-11.589844c0-3.328125-2.699218-6.023437-6.027344-6.023437h-20.390624c-3.328126 0-6.027344 2.695312-6.027344 6.023437zm0 0" fill="#c8e7f7"/><path d="m293.277344 255.886719v11.585937c0 3.328125 2.699218 6.027344 6.027344 6.027344h20.390624c3.328126 0 6.027344-2.699219 6.027344-6.027344v-11.585937c0-3.328125-2.699218-6.023438-6.027344-6.023438h-20.390624c-3.328126 0-6.027344 2.695313-6.027344 6.023438zm0 0" fill="#ed5176"/><path d="m293.277344 110.449219v62.109375c0 3.328125 2.699218 6.027344 6.027344 6.027344h20.390624c3.328126 0 6.027344-2.699219 6.027344-6.027344v-62.109375c0-3.328125-2.699218-6.023438-6.027344-6.023438h-20.390624c-3.328126 0-6.027344 2.695313-6.027344 6.023438zm0 0" fill="#aed559"/><g fill="#8cbcd6"><path d="m108.554688 87.597656h-20.109376c-3.835937 0-6.945312 3.109375-6.945312 6.945313v46.011719c0 3.835937 3.109375 6.945312 6.945312 6.945312h20.109376c3.835937 0 6.945312-3.109375 6.945312-6.945312v-46.011719c0-3.835938-3.109375-6.945313-6.945312-6.945313zm0 0"/><path d="m174.054688 87.597656h-20.109376c-3.835937 0-6.945312 3.109375-6.945312 6.945313v46.011719c0 3.835937 3.109375 6.945312 6.945312 6.945312h20.109376c3.835937 0 6.945312-3.109375 6.945312-6.945312v-46.011719c0-3.835938-3.109375-6.945313-6.945312-6.945313zm0 0"/><path d="m102.554688 211.761719h-20.109376c-3.835937 0-6.945312 3.109375-6.945312 6.945312v46.011719c0 3.835938 3.109375 6.945312 6.945312 6.945312h20.109376c3.835937 0 6.945312-3.109374 6.945312-6.945312v-46.011719c0-3.835937-3.109375-6.945312-6.945312-6.945312zm0 0"/><path d="m165.554688 211.761719h-20.109376c-3.835937 0-6.945312 3.109375-6.945312 6.945312v46.011719c0 3.835938 3.109375 6.945312 6.945312 6.945312h20.109376c3.835937 0 6.945312-3.109374 6.945312-6.945312v-46.011719c0-3.835937-3.109375-6.945312-6.945312-6.945312zm0 0"/><path d="m228.554688 211.761719h-20.109376c-3.835937 0-6.945312 3.109375-6.945312 6.945312v46.011719c0 3.835938 3.109375 6.945312 6.945312 6.945312h20.109376c3.835937 0 6.945312-3.109374 6.945312-6.945312v-46.011719c0-3.835937-3.109375-6.945312-6.945312-6.945312zm0 0"/></g><path d="m349.5 155c-4.144531 0-7.5 3.359375-7.5 7.5v201h-327v-201c0-4.140625-3.359375-7.5-7.5-7.5s-7.5 3.359375-7.5 7.5v292.039062c0 12.332032 10.03125 22.363282 22.359375 22.363282h2.304687v17.597656c0 9.648438 7.851563 17.5 17.5 17.5h272.667969c9.648438 0 17.5-7.851562 17.5-17.5v-17.597656h2.308594c12.328125 0 22.359375-10.03125 22.359375-22.363282v-292.039062c0-4.140625-3.355469-7.5-7.5-7.5zm-32.167969 339.5c0 1.378906-1.121093 2.5-2.5 2.5h-272.664062c-1.378907 0-2.5-1.121094-2.5-2.5v-17.597656h277.667969v17.597656zm17.308594-32.597656h-312.28125c-4.058594 0-7.359375-3.304688-7.359375-7.363282v-76.039062h327v76.039062c0 4.058594-3.304688 7.363282-7.359375 7.363282zm0 0"/><path d="m334.640625 0h-312.28125c-12.328125 0-22.359375 10.03125-22.359375 22.359375v110.140625c0 4.140625 3.359375 7.5 7.5 7.5s7.5-3.359375 7.5-7.5v-110.140625c0-4.058594 3.300781-7.359375 7.359375-7.359375h312.277344c4.058593 0 7.363281 3.300781 7.363281 7.359375v110.140625c0 4.140625 3.355469 7.5 7.5 7.5 4.140625 0 7.5-3.359375 7.5-7.5v-110.140625c0-12.328125-10.03125-22.359375-22.359375-22.359375zm0 0"/><path d="m220.5 394.699219h-130c-6.339844 0-11.5 5.160156-11.5 11.5v28c0 6.34375 5.160156 11.5 11.5 11.5h130c6.339844 0 11.5-5.15625 11.5-11.5v-28c0-6.339844-5.160156-11.5-11.5-11.5zm-3.5 36h-123v-21h123zm0 0"/><path d="m263.5 347.5c7.445312 0 13.5-6.054688 13.5-13.5v-286.5c0-7.445312-6.054688-13.5-13.5-13.5h-216c-7.445312 0-13.5 6.054688-13.5 13.5v286.5c0 7.445312 6.054688 13.5 13.5 13.5zm-155.5-207.5h-19v-44.902344h19zm154 15v109.164062h-19v-45.457031c0-7.964843-6.480469-14.445312-14.445312-14.445312h-20.109376c-7.964843 0-14.445312 6.480469-14.445312 14.445312v45.457031h-14v-45.457031c0-7.964843-6.480469-14.445312-14.445312-14.445312h-20.109376c-7.964843 0-14.445312 6.480469-14.445312 14.445312v45.457031h-14v-45.457031c0-7.964843-6.480469-14.445312-14.445312-14.445312h-20.109376c-7.964843 0-14.445312 6.480469-14.445312 14.445312v45.457031h-19v-109.164062zm-88.5-15h-19v-44.902344h19zm54.5 124.164062h-19v-44.902343h19zm-63 0h-19v-44.902343h19zm-63 0h-19v-44.902343h19zm-53 68.335938v-53.335938h213v53.335938zm213-283.5v91h-73.5v-45.457031c0-7.964844-6.480469-14.445313-14.445312-14.445313h-20.109376c-7.964843 0-14.445312 6.480469-14.445312 14.445313v45.457031h-16.5v-45.457031c0-7.964844-6.480469-14.445313-14.445312-14.445313h-20.109376c-7.964843 0-14.445312 6.480469-14.445312 14.445313v45.457031h-25v-91zm0 0"/><path d="m285.777344 222.6875c0 7.457031 6.066406 13.523438 13.523437 13.523438h20.394531c7.460938 0 13.527344-6.066407 13.527344-13.523438v-11.585938c0-7.460937-6.066406-13.527343-13.527344-13.527343h-20.394531c-7.457031 0-13.523437 6.066406-13.523437 13.527343zm15-10.113281h17.445312v8.636719h-17.445312zm0 0"/><path d="m285.777344 267.476562c0 7.457032 6.066406 13.523438 13.523437 13.523438h20.394531c7.460938 0 13.527344-6.066406 13.527344-13.523438v-11.589843c0-7.457031-6.066406-13.523438-13.527344-13.523438h-20.394531c-7.457031 0-13.523437 6.066407-13.523437 13.523438zm15-10.113281h17.445312v8.636719h-17.445312zm0 0"/><path d="m299.304688 186.085938h20.394531c7.457031 0 13.523437-6.066407 13.523437-13.527344v-62.109375c0-7.457031-6.066406-13.523438-13.523437-13.523438h-20.394531c-7.460938 0-13.527344 6.066407-13.527344 13.523438v62.109375c0 7.460937 6.066406 13.527344 13.527344 13.527344zm1.472656-74.160157h17.445312v59.160157h-17.445312zm0 0"/></svg>